<svg id="Layer_1" data-name="Layer 1" xmlns="http://www.w3.org/2000/svg" viewBox="0 0 350 70"><defs><style>.cls-1{fill:#659b7d;}.cls-2{fill:#4e8386;}</style></defs><path d="M122.77,53.52a13.23,13.23,0,0,1-7-1.8,12,12,0,0,1-4.54-5,16.83,16.83,0,0,1-1.6-7.56,17.52,17.52,0,0,1,1.56-7.6,12.21,12.21,0,0,1,4.4-5.15,11.94,11.94,0,0,1,6.67-1.86,13.7,13.7,0,0,1,4.41.74,11,11,0,0,1,3.94,2.39A11.47,11.47,0,0,1,133.41,32a17.89,17.89,0,0,1,1.06,6.58v1.88h-21.8V36.6H132L129.92,38a13.19,13.19,0,0,0-.86-4.91,7.43,7.43,0,0,0-2.58-3.36,7,7,0,0,0-4.24-1.22,7.44,7.44,0,0,0-4.34,1.24A8,8,0,0,0,115.14,33a9.75,9.75,0,0,0-1,4.28v2.54a11.78,11.78,0,0,0,1.08,5.28,7.51,7.51,0,0,0,3,3.29,8.92,8.92,0,0,0,4.5,1.12,9,9,0,0,0,3-.48,6.27,6.27,0,0,0,2.33-1.44,6.55,6.55,0,0,0,1.51-2.4l4.37,1.2a9.29,9.29,0,0,1-2.21,3.72A10.81,10.81,0,0,1,128,52.62,14.11,14.11,0,0,1,122.77,53.52Z"/><path d="M145.46,36.1V52.92h-4.52V24.85h4.35l0,6.81h-.62a10.33,10.33,0,0,1,3.65-5.53,9.54,9.54,0,0,1,5.56-1.63,10.17,10.17,0,0,1,5,1.17,8.09,8.09,0,0,1,3.33,3.51,13.11,13.11,0,0,1,1.19,5.92V52.92h-4.52V35.47a7.17,7.17,0,0,0-1.69-5.07,6,6,0,0,0-4.64-1.83,7.37,7.37,0,0,0-3.61.88A6.32,6.32,0,0,0,146.39,32,8.33,8.33,0,0,0,145.46,36.1Z"/><path d="M181.84,53.52a10.89,10.89,0,0,1-6.17-1.78,11.83,11.83,0,0,1-4.19-5A18.27,18.27,0,0,1,170,39a17.92,17.92,0,0,1,1.52-7.69,11.71,11.71,0,0,1,4.2-5,11,11,0,0,1,6.18-1.76,8.9,8.9,0,0,1,4.34.9,8.11,8.11,0,0,1,2.48,2.05,21.8,21.8,0,0,1,1.31,1.9h.36V15.51h4.52V52.92h-4.37V48.58H190a19,19,0,0,1-1.34,1.94,8.06,8.06,0,0,1-2.51,2.09A8.76,8.76,0,0,1,181.84,53.52Zm.68-4a6.93,6.93,0,0,0,4.32-1.34,8.24,8.24,0,0,0,2.66-3.73,15.5,15.5,0,0,0,.91-5.5,15,15,0,0,0-.9-5.43,7.88,7.88,0,0,0-2.64-3.63,7.11,7.11,0,0,0-4.35-1.31,7,7,0,0,0-4.43,1.38,8.35,8.35,0,0,0-2.65,3.73,15.07,15.07,0,0,0-.88,5.26,15.34,15.34,0,0,0,.89,5.34,8.54,8.54,0,0,0,2.68,3.81A6.8,6.8,0,0,0,182.52,49.48Z"/><path d="M214.61,24.85v3.87H200.1V24.85Zm-10.3-6.68h4.52V45.64a4.09,4.09,0,0,0,.77,2.75,3.25,3.25,0,0,0,2.55.87,8.74,8.74,0,0,0,1.09-.1l1.22-.2.93,3.81a8.36,8.36,0,0,1-1.6.38,13.16,13.16,0,0,1-1.77.12,7.93,7.93,0,0,1-5.67-1.92,7,7,0,0,1-2-5.36Z"/><path d="M220.38,52.92V24.85h4.37v4.32h.3a6.84,6.84,0,0,1,2.78-3.43,8.11,8.11,0,0,1,4.5-1.29l1.2,0c.46,0,.82,0,1.09.05v4.54c-.13,0-.47-.08-1-.15a13.33,13.33,0,0,0-1.71-.1,7.66,7.66,0,0,0-3.61.84,6.24,6.24,0,0,0-3.4,5.69V52.92Z"/><path d="M247.6,53.57a11.34,11.34,0,0,1-4.83-1,8.2,8.2,0,0,1-3.46-2.94A8.33,8.33,0,0,1,238,44.94,7.2,7.2,0,0,1,239,41a6.77,6.77,0,0,1,2.55-2.37,13.17,13.17,0,0,1,3.52-1.29c1.29-.29,2.59-.51,3.9-.68,1.67-.22,3-.39,4.09-.5a6.52,6.52,0,0,0,2.35-.61,1.52,1.52,0,0,0,.76-1.45V34a6.28,6.28,0,0,0-.65-3,4.44,4.44,0,0,0-2-1.87,7.34,7.34,0,0,0-3.26-.65,8.49,8.49,0,0,0-3.44.63,7,7,0,0,0-2.33,1.56,7.24,7.24,0,0,0-1.34,1.93l-4.34-1.44a9.85,9.85,0,0,1,2.91-4,11.28,11.28,0,0,1,4-2,16.61,16.61,0,0,1,4.37-.6,17,17,0,0,1,3.2.34,10.58,10.58,0,0,1,3.47,1.34,7.76,7.76,0,0,1,2.76,3,10.83,10.83,0,0,1,1.09,5.26v18.5h-4.44V49.11h-.3a7.69,7.69,0,0,1-1.54,2,8.55,8.55,0,0,1-2.73,1.74A10.52,10.52,0,0,1,247.6,53.57Zm.78-4a8.42,8.42,0,0,0,4.24-1,6.76,6.76,0,0,0,2.64-2.55,6.45,6.45,0,0,0,.9-3.27V38.89a2.62,2.62,0,0,1-1.2.59,20.48,20.48,0,0,1-2.13.46c-.79.14-1.56.25-2.31.34l-1.77.21a16,16,0,0,0-3.05.69,5.41,5.41,0,0,0-2.27,1.44,3.61,3.61,0,0,0-.85,2.54,3.9,3.9,0,0,0,.75,2.44,4.59,4.59,0,0,0,2.06,1.48A8.19,8.19,0,0,0,248.38,49.58Z"/><path d="M280,53.52a11.89,11.89,0,0,1-11.17-6.87,16.89,16.89,0,0,1-1.61-7.59,17.12,17.12,0,0,1,1.61-7.67A11.9,11.9,0,0,1,280,24.5a13.76,13.76,0,0,1,3.84.53,12.11,12.11,0,0,1,3.3,1.52A10.24,10.24,0,0,1,289.75,29a10.9,10.9,0,0,1,1.66,3.28l-4.34,1.23a6.42,6.42,0,0,0-.93-2,6.67,6.67,0,0,0-1.52-1.57,6.58,6.58,0,0,0-2.05-1,8.14,8.14,0,0,0-2.53-.37A7.07,7.07,0,0,0,275.42,30a8.76,8.76,0,0,0-2.69,3.86,15,15,0,0,0-.88,5.19,14.83,14.83,0,0,0,.88,5.14A8.67,8.67,0,0,0,275.42,48,7.11,7.11,0,0,0,280,49.48a8.42,8.42,0,0,0,2.58-.37,7.17,7.17,0,0,0,2.1-1.07,6.36,6.36,0,0,0,1.54-1.65,7,7,0,0,0,.93-2.08l4.32,1.23a10.47,10.47,0,0,1-1.64,3.35,11.06,11.06,0,0,1-2.6,2.51A11.53,11.53,0,0,1,283.93,53,13.7,13.7,0,0,1,280,53.52Z"/><path d="M309.79,53.52a13.23,13.23,0,0,1-7-1.8,12,12,0,0,1-4.54-5,17,17,0,0,1-1.6-7.56,17.52,17.52,0,0,1,1.56-7.6,12.23,12.23,0,0,1,4.41-5.15,11.91,11.91,0,0,1,6.66-1.86,13.7,13.7,0,0,1,4.41.74,11,11,0,0,1,3.94,2.39A11.47,11.47,0,0,1,320.43,32a17.89,17.89,0,0,1,1.06,6.58v1.88H299.7V36.6h19.35L317,38a13,13,0,0,0-.87-4.91,7.48,7.48,0,0,0-2.57-3.36,7.09,7.09,0,0,0-4.25-1.22,7.44,7.44,0,0,0-4.34,1.24A8,8,0,0,0,302.16,33a9.75,9.75,0,0,0-1,4.28v2.54a11.78,11.78,0,0,0,1.08,5.28,7.51,7.51,0,0,0,3,3.29,8.92,8.92,0,0,0,4.5,1.12,9,9,0,0,0,3-.48,6.27,6.27,0,0,0,2.33-1.44,6.42,6.42,0,0,0,1.51-2.4l4.37,1.2a9.18,9.18,0,0,1-2.21,3.72A10.72,10.72,0,0,1,315,52.62,14.11,14.11,0,0,1,309.79,53.52Z"/><path class="cls-1" d="M90.23,11.36V23.18a2.37,2.37,0,1,1-4.73,0V13.73H76.05a2.37,2.37,0,1,1,0-4.73H87.86A2.37,2.37,0,0,1,90.23,11.36Z"/><path class="cls-1" d="M43,56.27H33.5V46.82a2.37,2.37,0,1,0-4.73,0V58.64A2.37,2.37,0,0,0,31.14,61H43a2.37,2.37,0,1,0,0-4.73Z"/><path class="cls-1" d="M87.86,44.45a2.37,2.37,0,0,0-2.36,2.37v9.45H76.05a2.37,2.37,0,1,0,0,4.73H87.86a2.37,2.37,0,0,0,2.37-2.36V46.82A2.37,2.37,0,0,0,87.86,44.45Z"/><path class="cls-1" d="M31.14,25.55a2.37,2.37,0,0,0,2.36-2.37V13.73H43A2.37,2.37,0,1,0,43,9H31.14a2.37,2.37,0,0,0-2.37,2.36V23.18A2.37,2.37,0,0,0,31.14,25.55Z"/><path class="cls-2" d="M77.21,23.48,60.66,14a2.33,2.33,0,0,0-2.34,0L41.78,23.48a2.37,2.37,0,0,0-1.19,2.07V44.46a2.36,2.36,0,0,0,1.19,2.06L58.34,56a2.4,2.4,0,0,0,2.35,0l16.54-9.46a2.36,2.36,0,0,0,1.16-2.06V25.55A2.34,2.34,0,0,0,77.21,23.48ZM57.14,49.83,45.32,43.09V29.62l11.82,6.75ZM59.5,32.28,47.72,25.55,59.5,18.81l11.78,6.74ZM73.69,43.09,61.87,49.83V36.37l11.82-6.75Z"/></svg>