<?xml version="1.0" encoding="utf-8"?>
<!-- Generator: Adobe Illustrator 25.4.1, SVG Export Plug-In . SVG Version: 6.00 Build 0)  -->
<svg version="1.1" id="Layer_1" xmlns="http://www.w3.org/2000/svg" xmlns:xlink="http://www.w3.org/1999/xlink" x="0px" y="0px"
	 viewBox="0 0 96 96" style="enable-background:new 0 0 96 96;" xml:space="preserve">
<style type="text/css">
	.st0{fill:#659B7D;}
	.st1{fill:#4E8386;}
</style>
<g>
	<path class="st0" d="M87,18v15c0,1.7-1.3,3-3,3s-3-1.3-3-3V21H69c-1.7,0-3-1.3-3-3s1.3-3,3-3h15C85.7,15,87,16.3,87,18z"/>
	<path class="st0" d="M27,75H15V63c0-1.7-1.3-3-3-3s-3,1.3-3,3v15c0,1.7,1.3,3,3,3h15c1.7,0,3-1.3,3-3S28.7,75,27,75z"/>
	<path class="st0" d="M84,60c-1.7,0-3,1.3-3,3v12H69c-1.7,0-3,1.3-3,3s1.3,3,3,3h15c1.7,0,3-1.3,3-3V63C87,61.3,85.7,60,84,60z"/>
	<path class="st0" d="M12,36c1.7,0,3-1.3,3-3V21h12c1.7,0,3-1.3,3-3s-1.3-3-3-3H12c-1.7,0-3,1.3-3,3v15C9,34.7,10.3,36,12,36z"/>
</g>
<path class="st1" d="M70.5,33.4l-21-12c-0.9-0.5-2.1-0.5-3,0l-21,12C24.6,33.9,24,34.9,24,36v24c0,1.1,0.6,2.1,1.5,2.6l21,12
	c0.9,0.5,2.1,0.5,3,0l21-12c0.9-0.5,1.5-1.5,1.5-2.6V36C72,34.9,71.4,33.9,70.5,33.4z M45,66.8l-15-8.6V41.2l15,8.6V66.8z M48,44.5
	L33,36l15-8.5L63,36L48,44.5z M66,58.3l-15,8.6V49.7l15-8.6V58.3z"/>
</svg>
